<svg width="12" height="11" viewBox="0 0 12 11" fill="none" xmlns="http://www.w3.org/2000/svg">
<mask id="path-1-inside-1_212_1414" fill="white">
<path d="M7.34135 4.92435C7.26096 4.92435 7.18632 4.90225 7.12001 4.8667V4.86764C7.12001 4.99412 7.07085 5.1129 6.98165 5.20186C6.89245 5.29106 6.77376 5.34022 6.64742 5.34022C6.56586 5.34022 6.49027 5.31757 6.42324 5.28107C6.41648 5.39678 6.37023 5.50493 6.28772 5.58753C6.19852 5.67673 6.07983 5.72589 5.95341 5.72589C5.70225 5.72589 5.49828 5.52846 5.48358 5.281C5.40587 5.323 5.31801 5.34502 5.22739 5.3392C4.98031 5.323 4.78682 5.10952 4.78682 4.85309V2.72748L4.54478 3.1468C4.45259 3.30718 4.28003 3.40676 4.09423 3.40676C4.00369 3.40676 3.91426 3.38301 3.83505 3.33762C3.73641 3.28044 3.66586 3.18864 3.63651 3.07883C3.60702 2.96894 3.62228 2.85402 3.6793 2.75553C3.67938 2.75553 4.47123 1.38428 4.51954 1.30005C4.52528 1.28738 4.54164 1.25065 4.55557 1.21934C4.56886 1.18945 4.58027 1.15878 4.5912 1.12794C4.83 0.453772 5.42129 0.0349922 6.1344 0.0349922C7.06044 0.0349922 7.81383 0.851931 7.81383 1.8561L7.8139 4.4517C7.8139 4.57802 7.76482 4.69672 7.6757 4.786C7.5865 4.8752 7.46781 4.92436 7.34133 4.92436L7.34135 4.92435ZM6.13441 0.286108C5.52165 0.286108 5.03326 0.632214 4.82789 1.21192C4.81476 1.24874 4.80107 1.28555 4.7851 1.32142C4.73877 1.42532 4.73877 1.42532 4.72571 1.44027L4.72398 1.43877C4.65933 1.56077 4.46724 1.89342 3.89674 2.88121C3.8733 2.92172 3.86708 2.96876 3.87904 3.01375C3.89115 3.05874 3.92018 3.09666 3.96037 3.11986C4.08512 3.19152 4.25597 3.14527 4.32708 3.02138L4.80367 2.19625C4.83214 2.14709 4.88972 2.12294 4.94494 2.13788C4.99984 2.15259 5.03799 2.20238 5.03799 2.25917V4.85316C5.03799 4.97555 5.13033 5.08118 5.24385 5.08866C5.30929 5.09212 5.37033 5.07017 5.41619 5.02439C5.45788 4.9827 5.48084 4.92717 5.48084 4.86778V3.17128C5.48084 3.10191 5.53708 3.04566 5.60646 3.04566C5.67584 3.04566 5.73208 3.10183 5.73208 3.17128L5.732 5.2534C5.732 5.37548 5.83134 5.47482 5.95342 5.47482C6.01273 5.47482 6.06842 5.45185 6.11019 5.41016C6.15188 5.3684 6.17484 5.31271 6.17484 5.2534V3.17128C6.17484 3.1019 6.23101 3.04566 6.30046 3.04566C6.36984 3.04566 6.42608 3.10183 6.42608 3.17128L6.426 4.84827V4.86778C6.426 4.98978 6.52535 5.08912 6.6475 5.08912C6.70673 5.08912 6.76226 5.06607 6.80427 5.02422C6.84596 4.98261 6.86892 4.92708 6.86892 4.86769V3.17119C6.86892 3.10182 6.92509 3.04558 6.99454 3.04558C7.06392 3.04558 7.12016 3.10174 7.12016 3.17119L7.12 4.45175C7.12 4.57391 7.21935 4.67326 7.34134 4.67326C7.40073 4.67326 7.45626 4.65021 7.49795 4.6086C7.5398 4.56675 7.56269 4.51106 7.56269 4.45175L7.56276 1.85616C7.56276 0.99053 6.92202 0.286133 6.1344 0.286133L6.13441 0.286108Z"/>
</mask>
<path d="M7.34135 4.92435C7.26096 4.92435 7.18632 4.90225 7.12001 4.8667V4.86764C7.12001 4.99412 7.07085 5.1129 6.98165 5.20186C6.89245 5.29106 6.77376 5.34022 6.64742 5.34022C6.56586 5.34022 6.49027 5.31757 6.42324 5.28107C6.41648 5.39678 6.37023 5.50493 6.28772 5.58753C6.19852 5.67673 6.07983 5.72589 5.95341 5.72589C5.70225 5.72589 5.49828 5.52846 5.48358 5.281C5.40587 5.323 5.31801 5.34502 5.22739 5.3392C4.98031 5.323 4.78682 5.10952 4.78682 4.85309V2.72748L4.54478 3.1468C4.45259 3.30718 4.28003 3.40676 4.09423 3.40676C4.00369 3.40676 3.91426 3.38301 3.83505 3.33762C3.73641 3.28044 3.66586 3.18864 3.63651 3.07883C3.60702 2.96894 3.62228 2.85402 3.6793 2.75553C3.67938 2.75553 4.47123 1.38428 4.51954 1.30005C4.52528 1.28738 4.54164 1.25065 4.55557 1.21934C4.56886 1.18945 4.58027 1.15878 4.5912 1.12794C4.83 0.453772 5.42129 0.0349922 6.1344 0.0349922C7.06044 0.0349922 7.81383 0.851931 7.81383 1.8561L7.8139 4.4517C7.8139 4.57802 7.76482 4.69672 7.6757 4.786C7.5865 4.8752 7.46781 4.92436 7.34133 4.92436L7.34135 4.92435ZM6.13441 0.286108C5.52165 0.286108 5.03326 0.632214 4.82789 1.21192C4.81476 1.24874 4.80107 1.28555 4.7851 1.32142C4.73877 1.42532 4.73877 1.42532 4.72571 1.44027L4.72398 1.43877C4.65933 1.56077 4.46724 1.89342 3.89674 2.88121C3.8733 2.92172 3.86708 2.96876 3.87904 3.01375C3.89115 3.05874 3.92018 3.09666 3.96037 3.11986C4.08512 3.19152 4.25597 3.14527 4.32708 3.02138L4.80367 2.19625C4.83214 2.14709 4.88972 2.12294 4.94494 2.13788C4.99984 2.15259 5.03799 2.20238 5.03799 2.25917V4.85316C5.03799 4.97555 5.13033 5.08118 5.24385 5.08866C5.30929 5.09212 5.37033 5.07017 5.41619 5.02439C5.45788 4.9827 5.48084 4.92717 5.48084 4.86778V3.17128C5.48084 3.10191 5.53708 3.04566 5.60646 3.04566C5.67584 3.04566 5.73208 3.10183 5.73208 3.17128L5.732 5.2534C5.732 5.37548 5.83134 5.47482 5.95342 5.47482C6.01273 5.47482 6.06842 5.45185 6.11019 5.41016C6.15188 5.3684 6.17484 5.31271 6.17484 5.2534V3.17128C6.17484 3.1019 6.23101 3.04566 6.30046 3.04566C6.36984 3.04566 6.42608 3.10183 6.42608 3.17128L6.426 4.84827V4.86778C6.426 4.98978 6.52535 5.08912 6.6475 5.08912C6.70673 5.08912 6.76226 5.06607 6.80427 5.02422C6.84596 4.98261 6.86892 4.92708 6.86892 4.86769V3.17119C6.86892 3.10182 6.92509 3.04558 6.99454 3.04558C7.06392 3.04558 7.12016 3.10174 7.12016 3.17119L7.12 4.45175C7.12 4.57391 7.21935 4.67326 7.34134 4.67326C7.40073 4.67326 7.45626 4.65021 7.49795 4.6086C7.5398 4.56675 7.56269 4.51106 7.56269 4.45175L7.56276 1.85616C7.56276 0.99053 6.92202 0.286133 6.1344 0.286133L6.13441 0.286108Z" fill="#4CAF4F"/>
<path d="M7.34135 4.92435V4.4792H8.9141L7.57466 5.30347L7.34135 4.92435ZM7.12001 4.8667H6.67485V4.12289L7.33037 4.47438L7.12001 4.8667ZM6.98165 5.20186L6.66688 4.88709L6.66729 4.88668L6.98165 5.20186ZM6.42324 5.28107L5.97885 5.25509L6.01981 4.55449L6.63614 4.89013L6.42324 5.28107ZM6.28772 5.58753L6.60265 5.90214L6.60249 5.9023L6.28772 5.58753ZM5.48358 5.281L5.27193 4.88938L5.88653 4.5572L5.92796 5.2546L5.48358 5.281ZM5.22739 5.3392L5.19885 5.78344L5.19826 5.7834L5.22739 5.3392ZM4.78682 2.72748L4.40128 2.50494L5.23198 1.0658V2.72748H4.78682ZM4.54478 3.1468L4.15884 2.92496L4.15924 2.92426L4.54478 3.1468ZM3.83505 3.33762L3.61373 3.72387L3.61178 3.72274L3.83505 3.33762ZM3.63651 3.07883L4.06645 2.96342L4.06658 2.96392L3.63651 3.07883ZM3.6793 2.75553L3.29407 2.53247L3.42267 2.31038H3.6793V2.75553ZM4.51954 1.30005L4.92497 1.48387L4.91623 1.50315L4.9057 1.52151L4.51954 1.30005ZM4.55557 1.21934L4.14882 1.03846L4.14882 1.03845L4.55557 1.21934ZM4.5912 1.12794L5.01081 1.27657L5.01077 1.27669L4.5912 1.12794ZM7.81383 1.8561L7.36867 1.85611V1.8561H7.81383ZM7.8139 4.4517L8.25906 4.45168V4.4517H7.8139ZM7.6757 4.786L7.99077 5.10048L7.99047 5.10077L7.6757 4.786ZM7.34133 4.92436V5.36952H5.76858L7.10803 4.54524L7.34133 4.92436ZM6.13441 0.286108V-0.159048H6.72456L6.56244 0.408401L6.13441 0.286108ZM4.82789 1.21192L5.24749 1.36058L5.24715 1.36153L4.82789 1.21192ZM4.7851 1.32142L5.19178 1.50246L5.19167 1.5027L4.7851 1.32142ZM4.72571 1.44027L5.06094 1.73316L4.76972 2.06646L4.43475 1.77717L4.72571 1.44027ZM4.72398 1.43877L4.33065 1.23032L4.59221 0.736782L5.01495 1.10187L4.72398 1.43877ZM3.89674 2.88121L4.28222 3.10385L4.28203 3.10417L3.89674 2.88121ZM3.87904 3.01375L3.44919 3.12948L3.44882 3.12809L3.87904 3.01375ZM3.96037 3.11986L3.73865 3.50587L3.73781 3.50539L3.96037 3.11986ZM4.32708 3.02138L3.94099 2.79979L3.9416 2.79873L4.32708 3.02138ZM4.80367 2.19625L4.41819 1.9736L4.41846 1.97313L4.80367 2.19625ZM4.94494 2.13788L4.82974 2.56788L4.82864 2.56758L4.94494 2.13788ZM5.24385 5.08866L5.22033 5.53323L5.21461 5.53285L5.24385 5.08866ZM5.41619 5.02439L5.73096 5.33916L5.73068 5.33944L5.41619 5.02439ZM5.73208 3.17128H6.17723V3.1713L5.73208 3.17128ZM5.732 5.2534H5.28684V5.25338L5.732 5.2534ZM6.11019 5.41016L6.42526 5.72464L6.42466 5.72524L6.11019 5.41016ZM6.42608 3.17128H6.87123V3.1713L6.42608 3.17128ZM6.426 4.84827H5.98084V4.84825L6.426 4.84827ZM6.80427 5.02422L7.11874 5.33929L7.11845 5.33959L6.80427 5.02422ZM7.12016 3.17119H7.56532V3.17125L7.12016 3.17119ZM7.12 4.45175H6.67485L6.67485 4.4517L7.12 4.45175ZM7.49795 4.6086L7.81272 4.92337L7.81243 4.92367L7.49795 4.6086ZM7.56269 4.45175H7.11753V4.45174L7.56269 4.45175ZM7.56276 1.85616H8.00792V1.85617L7.56276 1.85616ZM6.1344 0.286133V0.731289H5.54425L5.70637 0.16384L6.1344 0.286133ZM7.34135 5.36951C7.17743 5.36951 7.0311 5.32413 6.90965 5.25901L7.33037 4.47438C7.33612 4.47746 7.33977 4.47864 7.34122 4.47903C7.34247 4.47937 7.3423 4.4792 7.34135 4.4792V5.36951ZM7.56517 4.8667V4.86764H6.67485V4.8667H7.56517ZM7.56517 4.86764C7.56517 5.11182 7.46935 5.34417 7.29601 5.51705L6.66729 4.88668C6.67047 4.8835 6.67205 4.88078 6.67297 4.87856C6.67389 4.87633 6.67485 4.8729 6.67485 4.86764H7.56517ZM7.29642 5.51664C7.12367 5.68939 6.89172 5.78538 6.64742 5.78538V4.89507C6.65253 4.89507 6.65589 4.89414 6.65817 4.8932C6.66045 4.89225 6.6634 4.89057 6.66688 4.88709L7.29642 5.51664ZM6.64742 5.78538C6.48137 5.78538 6.3332 5.73892 6.21035 5.67202L6.63614 4.89013C6.64194 4.89328 6.64561 4.89449 6.64707 4.89488C6.64832 4.89522 6.64822 4.89507 6.64742 4.89507V5.78538ZM6.86764 5.30705C6.85483 5.52617 6.76595 5.73867 6.60265 5.90214L5.97278 5.27292C5.97443 5.27127 5.97539 5.26981 5.97619 5.26797C5.97707 5.26597 5.97845 5.26189 5.97885 5.25509L6.86764 5.30705ZM6.60249 5.9023C6.42971 6.07509 6.19775 6.17105 5.95341 6.17105V5.28074C5.95859 5.28074 5.96198 5.2798 5.96426 5.27885C5.96653 5.27791 5.96947 5.27623 5.97294 5.27276L6.60249 5.9023ZM5.95341 6.17105C5.46196 6.17105 5.0676 5.78533 5.03921 5.30739L5.92796 5.2546C5.92841 5.26217 5.9315 5.26881 5.93698 5.27404C5.93966 5.27659 5.94237 5.27823 5.94473 5.27919C5.9468 5.28004 5.94943 5.28074 5.95341 5.28074V6.17105ZM5.69524 5.67261C5.55145 5.75033 5.38097 5.79514 5.19885 5.78344L5.25593 4.89496C5.25593 4.89496 5.25688 4.89506 5.25923 4.89451C5.26174 4.89392 5.2661 4.89253 5.27193 4.88938L5.69524 5.67261ZM5.19826 5.7834C4.70399 5.75099 4.34167 5.33065 4.34167 4.85309H5.23198C5.23198 4.86814 5.23744 4.87973 5.24429 4.88729C5.25097 4.89465 5.2555 4.89493 5.25652 4.895L5.19826 5.7834ZM4.34167 4.85309V2.72748H5.23198V4.85309H4.34167ZM5.17236 2.95002L4.93032 3.36934L4.15924 2.92426L4.40128 2.50494L5.17236 2.95002ZM4.93072 3.36864C4.75871 3.66789 4.43853 3.85192 4.09423 3.85192V2.96161C4.12152 2.96161 4.14647 2.94647 4.15884 2.92496L4.93072 3.36864ZM4.09423 3.85192C3.92588 3.85192 3.76017 3.80777 3.61373 3.72386L4.05637 2.95138C4.06834 2.95824 4.08149 2.96161 4.09423 2.96161V3.85192ZM3.61178 3.72274C3.41192 3.60687 3.26645 3.41831 3.20644 3.19373L4.06658 2.96392C4.06618 2.9624 4.06507 2.95971 4.06292 2.95692C4.0608 2.95415 4.05883 2.9528 4.05832 2.9525L3.61178 3.72274ZM3.20658 3.19423C3.14634 2.96982 3.17788 2.73314 3.29407 2.53247L4.06454 2.9786C4.06517 2.9775 4.06629 2.97496 4.06676 2.97136C4.06724 2.96776 4.06684 2.96488 4.06645 2.96342L3.20658 3.19423ZM3.6793 2.31038C3.46094 2.36762 3.29749 2.52666 3.29627 2.52871C3.29587 2.5294 3.29526 2.53043 3.29507 2.53076C3.29496 2.53095 3.29477 2.53127 3.2947 2.53138C3.29466 2.53145 3.29458 2.53159 3.29456 2.53162C3.2945 2.53173 3.29452 2.5317 3.29469 2.53141C3.29499 2.53089 3.2955 2.53001 3.29624 2.52873C3.2977 2.5262 3.29989 2.5224 3.3028 2.51738C3.30859 2.50735 3.31711 2.49261 3.32798 2.47379C3.34973 2.43614 3.38084 2.38227 3.41834 2.31734C3.49334 2.18748 3.59383 2.01345 3.69582 1.83679C3.90016 1.48288 4.10966 1.11996 4.13338 1.07858L4.9057 1.52151C4.88112 1.56437 4.67053 1.92919 4.46685 2.28196C4.36484 2.45864 4.26433 2.6327 4.18932 2.76258C4.15182 2.82752 4.12068 2.88143 4.09892 2.91911C4.08804 2.93795 4.07949 2.95275 4.07365 2.96285C4.07074 2.96789 4.06848 2.9718 4.06693 2.97446C4.06617 2.97578 4.06554 2.97687 4.06508 2.97767C4.06486 2.97804 4.0646 2.9785 4.06434 2.97894C4.06425 2.97911 4.06396 2.9796 4.06362 2.98019C4.0634 2.98056 4.06278 2.98162 4.06236 2.98232C4.06112 2.9844 3.89767 3.14345 3.6793 3.20069V2.31038ZM4.11411 1.11622C4.11901 1.10541 4.13454 1.07057 4.14882 1.03846L4.96231 1.40023C4.94875 1.43073 4.93155 1.46935 4.92497 1.48387L4.11411 1.11622ZM4.14882 1.03845C4.15501 1.02454 4.16186 1.00676 4.17163 0.979191L5.01077 1.27669C4.99868 1.31079 4.98271 1.35437 4.96231 1.40024L4.14882 1.03845ZM4.17159 0.979312C4.47309 0.128126 5.23197 -0.410163 6.1344 -0.410163V0.480148C5.6106 0.480148 5.18691 0.779418 5.01081 1.27657L4.17159 0.979312ZM6.1344 -0.410163C7.33955 -0.410163 8.25898 0.64071 8.25898 1.8561H7.36867C7.36867 1.06315 6.78133 0.480148 6.1344 0.480148V-0.410163ZM8.25898 1.85608L8.25906 4.45168L7.36875 4.45171L7.36867 1.85611L8.25898 1.85608ZM8.25906 4.4517C8.25906 4.69581 8.16328 4.92764 7.99077 5.10048L7.36064 4.47152C7.36416 4.468 7.36587 4.465 7.36684 4.46266C7.36781 4.46032 7.36875 4.45688 7.36875 4.4517H8.25906ZM7.99047 5.10077C7.81767 5.27358 7.5857 5.36952 7.34133 5.36952V4.47921C7.34657 4.47921 7.34998 4.47826 7.35225 4.47732C7.35452 4.47638 7.35746 4.4747 7.36093 4.47123L7.99047 5.10077ZM7.10803 4.54524L7.10805 4.54523L7.57466 5.30347L7.57464 5.30348L7.10803 4.54524ZM6.13441 0.731263C5.71117 0.731263 5.39023 0.957675 5.24749 1.36058L4.40829 1.06327C4.6763 0.306753 5.33214 -0.159048 6.13441 -0.159048V0.731263ZM5.24715 1.36153C5.2331 1.40091 5.21485 1.45064 5.19178 1.50246L4.37842 1.14037C4.38729 1.12045 4.39641 1.09656 4.40863 1.06231L5.24715 1.36153ZM5.19167 1.5027C5.17129 1.54842 5.15421 1.58703 5.14114 1.61318C5.13303 1.62941 5.1199 1.65443 5.10085 1.68214C5.08156 1.71022 5.06249 1.73139 5.06094 1.73316L4.39049 1.14737C4.39154 1.14617 4.39119 1.14656 4.39067 1.14718C4.38999 1.14797 4.38826 1.14998 4.38599 1.15275C4.38092 1.15893 4.37428 1.16745 4.36712 1.17787C4.3532 1.19813 4.34541 1.21385 4.34472 1.21523C4.34421 1.21624 4.34453 1.21564 4.34604 1.2124C4.34751 1.20927 4.34958 1.20475 4.35256 1.19817C4.35864 1.18473 4.36673 1.1666 4.37853 1.14014L5.19167 1.5027ZM4.43475 1.77717L4.43302 1.77568L5.01495 1.10187L5.01668 1.10336L4.43475 1.77717ZM5.11732 1.64723C5.04765 1.77869 4.84875 2.12294 4.28222 3.10385L3.51125 2.65857C4.08574 1.66389 4.27101 1.34286 4.33065 1.23032L5.11732 1.64723ZM4.28203 3.10417C4.31765 3.04261 4.32758 2.96835 4.30926 2.89941L3.44882 3.12809C3.40658 2.96917 3.42894 2.80083 3.51144 2.65825L4.28203 3.10417ZM4.30889 2.89802C4.29057 2.82999 4.24555 2.77048 4.18293 2.73433L3.73781 3.50539C3.59481 3.42283 3.49173 3.2875 3.44919 3.12948L4.30889 2.89802ZM4.1821 2.73385C4.13142 2.70475 4.08214 2.70494 4.04811 2.7141C4.01421 2.72323 3.97074 2.74795 3.94099 2.79979L4.71316 3.24297C4.51915 3.581 4.07577 3.69951 3.73865 3.50587L4.1821 2.73385ZM3.9416 2.79873L4.41819 1.9736L5.18914 2.41889L4.71255 3.24403L3.9416 2.79873ZM4.41846 1.97313C4.54704 1.75114 4.80949 1.64005 5.06124 1.70819L4.82864 2.56758C4.96995 2.60583 5.11724 2.54303 5.18887 2.41936L4.41846 1.97313ZM5.06014 1.70789C5.30987 1.7748 5.48315 2.00111 5.48315 2.25917H4.59284C4.59284 2.40365 4.68981 2.53039 4.82974 2.56787L5.06014 1.70789ZM5.48315 2.25917V4.85316H4.59284V2.25917H5.48315ZM5.48315 4.85316C5.48315 4.80243 5.46436 4.75632 5.43351 4.72103C5.40271 4.68579 5.34836 4.64941 5.27308 4.64446L5.21461 5.53285C4.83987 5.50819 4.59284 5.18175 4.59284 4.85316H5.48315ZM5.26736 4.64412C5.21476 4.64134 5.15052 4.6606 5.10169 4.70934L5.73068 5.33944C5.59014 5.47974 5.40382 5.54289 5.22034 5.53319L5.26736 4.64412ZM5.10141 4.70962C5.05917 4.75187 5.03569 4.80975 5.03569 4.86778H5.926C5.926 5.04459 5.85658 5.21354 5.73096 5.33916L5.10141 4.70962ZM5.03569 4.86778V3.17128H5.926V4.86778H5.03569ZM5.03569 3.17128C5.03569 2.85605 5.29123 2.60051 5.60646 2.60051V3.49082C5.78294 3.49082 5.926 3.34776 5.926 3.17128H5.03569ZM5.60646 2.60051C5.92151 2.60051 6.17723 2.8558 6.17723 3.17128H5.28692C5.28692 3.34786 5.43016 3.49082 5.60646 3.49082V2.60051ZM6.17723 3.1713L6.17715 5.25341L5.28684 5.25338L5.28692 3.17127L6.17723 3.1713ZM6.17715 5.2534C6.17715 5.12962 6.07719 5.02966 5.95342 5.02966V5.91997C5.58549 5.91997 5.28684 5.62133 5.28684 5.2534H6.17715ZM5.95342 5.02966C5.89548 5.02966 5.83788 5.05301 5.79572 5.09509L6.42466 5.72524C6.29896 5.85069 6.12997 5.91997 5.95342 5.91997V5.02966ZM5.79512 5.09569C5.75303 5.13785 5.72969 5.19546 5.72969 5.2534H6.62C6.62 5.42995 6.55072 5.59894 6.42526 5.72464L5.79512 5.09569ZM5.72969 5.2534V3.17128H6.62V5.2534H5.72969ZM5.72969 3.17128C5.72969 2.85624 5.98497 2.60051 6.30046 2.60051V3.49082C6.47704 3.49082 6.62 3.34757 6.62 3.17128H5.72969ZM6.30046 2.60051C6.61551 2.60051 6.87123 2.85579 6.87123 3.17128H5.98092C5.98092 3.34786 6.12417 3.49082 6.30046 3.49082V2.60051ZM6.87123 3.1713L6.87116 4.84829L5.98084 4.84825L5.98092 3.17126L6.87123 3.1713ZM6.87116 4.84827V4.86778H5.98084V4.84827H6.87116ZM6.87116 4.86778C6.87116 4.74371 6.77098 4.64396 6.6475 4.64396V5.53427C6.27971 5.53427 5.98084 5.23585 5.98084 4.86778H6.87116ZM6.6475 4.64396C6.58835 4.64396 6.53108 4.66802 6.49009 4.70886L7.11845 5.33959C6.99344 5.46413 6.82511 5.53427 6.6475 5.53427V4.64396ZM6.48979 4.70915C6.44721 4.75166 6.42377 4.80973 6.42377 4.86769H7.31408C7.31408 5.04443 7.2447 5.21357 7.11874 5.33929L6.48979 4.70915ZM6.42377 4.86769V3.17119H7.31408V4.86769H6.42377ZM6.42377 3.17119C6.42377 2.85614 6.67906 2.60042 6.99454 2.60042V3.49073C7.17112 3.49073 7.31408 3.34749 7.31408 3.17119H6.42377ZM6.99454 2.60042C7.30959 2.60042 7.56532 2.8557 7.56532 3.17119H6.675C6.675 3.34777 6.81825 3.49073 6.99454 3.49073V2.60042ZM7.56532 3.17125L7.56516 4.45181L6.67485 4.4517L6.675 3.17114L7.56532 3.17125ZM7.56516 4.45175C7.56516 4.32827 7.46541 4.2281 7.34134 4.2281V5.11841C6.97329 5.11841 6.67485 4.81955 6.67485 4.45175H7.56516ZM7.34134 4.2281C7.28295 4.2281 7.22534 4.25174 7.18348 4.29353L7.81243 4.92367C7.68718 5.04868 7.51851 5.11841 7.34134 5.11841V4.2281ZM7.18318 4.29383C7.14079 4.33622 7.11753 4.39407 7.11753 4.45175H8.00784C8.00784 4.62806 7.9388 4.79729 7.81272 4.92337L7.18318 4.29383ZM7.11753 4.45174L7.11761 1.85614L8.00792 1.85617L8.00784 4.45177L7.11753 4.45174ZM7.11761 1.85616C7.11761 1.19581 6.63747 0.731289 6.1344 0.731289V-0.159022C7.20657 -0.159022 8.00792 0.785246 8.00792 1.85616H7.11761ZM5.70637 0.16384L5.70638 0.163814L6.56244 0.408401L6.56243 0.408427L5.70637 0.16384Z" fill="#4CAF4F" mask="url(#path-1-inside-1_212_1414)"/>
<path d="M1.88232 5.78241L1.85693 5.76874C1.8509 5.7796 1.83486 5.80882 1.81104 5.85175C1.81994 5.85621 1.8284 5.86106 1.8374 5.86444C1.85225 5.8377 1.86691 5.81018 1.88232 5.78241Z" fill="#4CAF4F" stroke="#4CAF4F" stroke-width="0.445155"/>
<mask id="path-4-inside-2_212_1414" fill="white">
<path d="M11.1161 9.26896C10.8843 9.65557 10.503 9.92018 10.0425 10.0143C9.58604 10.1073 9.10599 10.0215 8.69051 9.77238L6.46462 8.43708C6.35631 8.37211 6.27969 8.26891 6.24902 8.14635C6.21858 8.02404 6.23761 7.897 6.3025 7.78877C6.34301 7.72112 6.3998 7.66779 6.46564 7.62839L6.46501 7.62799C6.3567 7.56302 6.28009 7.45982 6.24957 7.33742C6.2189 7.21503 6.23793 7.08791 6.3029 6.97954C6.34475 6.90993 6.40209 6.85549 6.46753 6.81687C6.37251 6.75151 6.30408 6.65657 6.27592 6.54392C6.24525 6.42145 6.26428 6.29441 6.32925 6.18618C6.39415 6.07786 6.49742 6.00133 6.61982 5.97074C6.65805 5.96114 6.69683 5.95642 6.73521 5.95642C6.81057 5.9565 6.88451 5.97561 6.95247 6.01117C6.95664 5.92315 6.98283 5.8367 7.03427 5.76252C7.17531 5.55904 7.45784 5.50272 7.67794 5.63478L9.50069 6.72813L9.26574 6.30494C9.1756 6.14338 9.1789 5.94406 9.27447 5.7847C9.32104 5.70714 9.38758 5.64272 9.4671 5.59812C9.53247 5.56194 9.60326 5.54479 9.6731 5.54479C9.8231 5.54487 9.96879 5.624 10.0463 5.7641C10.3166 6.25108 10.8266 7.16948 10.8625 7.2336C10.8701 7.24469 10.8932 7.27773 10.9129 7.30581C10.9317 7.33247 10.952 7.35796 10.973 7.38329C11.4281 7.93499 11.483 8.65746 11.1161 9.26897L11.1161 9.26896ZM10.7792 7.54337C10.7542 7.51308 10.7297 7.48217 10.7073 7.45031C10.6394 7.35388 10.6376 7.35136 10.6325 7.32611C10.5531 7.19467 10.3593 6.84575 9.82651 5.88595C9.77979 5.8017 9.67359 5.77095 9.58904 5.81767C9.54743 5.84095 9.514 5.87344 9.48961 5.91411C9.44022 5.99646 9.43833 6.09935 9.48497 6.18289L9.94733 7.01596C9.97494 7.06567 9.96573 7.12765 9.92491 7.16714C9.88417 7.2067 9.82187 7.21363 9.77294 7.18452L7.54866 5.85016C7.44381 5.78731 7.30561 5.81193 7.2408 5.90553C7.20351 5.95933 7.19163 6.02352 7.20721 6.08621C7.22152 6.14348 7.25747 6.19177 7.30836 6.22229C7.30852 6.22237 7.3086 6.22253 7.30875 6.2226L8.76307 7.09508C8.82254 7.13079 8.84181 7.20788 8.8061 7.26742C8.77039 7.32681 8.69338 7.34624 8.63376 7.31045L6.84829 6.23936C6.79764 6.209 6.73802 6.20004 6.68075 6.21443C6.62333 6.22874 6.57504 6.26461 6.5446 6.3155C6.51408 6.36624 6.50527 6.42578 6.51943 6.48305C6.53374 6.54031 6.56969 6.58868 6.6205 6.6192L6.96794 6.82758L8.40588 7.6903C8.46535 7.72601 8.48462 7.8031 8.44891 7.86264C8.4132 7.92203 8.33619 7.94138 8.27657 7.90567L6.82195 7.03295C6.71733 6.97003 6.5811 7.00416 6.51817 7.10894C6.48765 7.15975 6.47884 7.2193 6.493 7.27656C6.50731 7.33382 6.54326 7.38212 6.59415 7.41271L6.95079 7.62666L8.04877 8.28543C8.10824 8.32114 8.12751 8.39823 8.0918 8.45777C8.05609 8.51716 7.97908 8.53667 7.91946 8.5008L6.82148 7.84203C6.77082 7.81167 6.71143 7.8027 6.65385 7.8171C6.59659 7.83141 6.54814 7.86728 6.5177 7.91801C6.48726 7.96883 6.47837 8.02845 6.49253 8.08563C6.50684 8.1429 6.54279 8.19119 6.59368 8.22179L8.81957 9.55708C9.18078 9.77379 9.59734 9.84882 9.99206 9.76828C10.3827 9.68852 10.7053 9.46536 10.9006 9.13988C11.2161 8.61427 11.1707 8.01743 10.7793 7.54335L10.7792 7.54337Z"/>
</mask>
<path d="M11.1161 9.26896C10.8843 9.65557 10.503 9.92018 10.0425 10.0143C9.58604 10.1073 9.10599 10.0215 8.69051 9.77238L6.46462 8.43708C6.35631 8.37211 6.27969 8.26891 6.24902 8.14635C6.21858 8.02404 6.23761 7.897 6.3025 7.78877C6.34301 7.72112 6.3998 7.66779 6.46564 7.62839L6.46501 7.62799C6.3567 7.56302 6.28009 7.45982 6.24957 7.33742C6.2189 7.21503 6.23793 7.08791 6.3029 6.97954C6.34475 6.90993 6.40209 6.85549 6.46753 6.81687C6.37251 6.75151 6.30408 6.65657 6.27592 6.54392C6.24525 6.42145 6.26428 6.29441 6.32925 6.18618C6.39415 6.07786 6.49742 6.00133 6.61982 5.97074C6.65805 5.96114 6.69683 5.95642 6.73521 5.95642C6.81057 5.9565 6.88451 5.97561 6.95247 6.01117C6.95664 5.92315 6.98283 5.8367 7.03427 5.76252C7.17531 5.55904 7.45784 5.50272 7.67794 5.63478L9.50069 6.72813L9.26574 6.30494C9.1756 6.14338 9.1789 5.94406 9.27447 5.7847C9.32104 5.70714 9.38758 5.64272 9.4671 5.59812C9.53247 5.56194 9.60326 5.54479 9.6731 5.54479C9.8231 5.54487 9.96879 5.624 10.0463 5.7641C10.3166 6.25108 10.8266 7.16948 10.8625 7.2336C10.8701 7.24469 10.8932 7.27773 10.9129 7.30581C10.9317 7.33247 10.952 7.35796 10.973 7.38329C11.4281 7.93499 11.483 8.65746 11.1161 9.26897L11.1161 9.26896ZM10.7792 7.54337C10.7542 7.51308 10.7297 7.48217 10.7073 7.45031C10.6394 7.35388 10.6376 7.35136 10.6325 7.32611C10.5531 7.19467 10.3593 6.84575 9.82651 5.88595C9.77979 5.8017 9.67359 5.77095 9.58904 5.81767C9.54743 5.84095 9.514 5.87344 9.48961 5.91411C9.44022 5.99646 9.43833 6.09935 9.48497 6.18289L9.94733 7.01596C9.97494 7.06567 9.96573 7.12765 9.92491 7.16714C9.88417 7.2067 9.82187 7.21363 9.77294 7.18452L7.54866 5.85016C7.44381 5.78731 7.30561 5.81193 7.2408 5.90553C7.20351 5.95933 7.19163 6.02352 7.20721 6.08621C7.22152 6.14348 7.25747 6.19177 7.30836 6.22229C7.30852 6.22237 7.3086 6.22253 7.30875 6.2226L8.76307 7.09508C8.82254 7.13079 8.84181 7.20788 8.8061 7.26742C8.77039 7.32681 8.69338 7.34624 8.63376 7.31045L6.84829 6.23936C6.79764 6.209 6.73802 6.20004 6.68075 6.21443C6.62333 6.22874 6.57504 6.26461 6.5446 6.3155C6.51408 6.36624 6.50527 6.42578 6.51943 6.48305C6.53374 6.54031 6.56969 6.58868 6.6205 6.6192L6.96794 6.82758L8.40588 7.6903C8.46535 7.72601 8.48462 7.8031 8.44891 7.86264C8.4132 7.92203 8.33619 7.94138 8.27657 7.90567L6.82195 7.03295C6.71733 6.97003 6.5811 7.00416 6.51817 7.10894C6.48765 7.15975 6.47884 7.2193 6.493 7.27656C6.50731 7.33382 6.54326 7.38212 6.59415 7.41271L6.95079 7.62666L8.04877 8.28543C8.10824 8.32114 8.12751 8.39823 8.0918 8.45777C8.05609 8.51716 7.97908 8.53667 7.91946 8.5008L6.82148 7.84203C6.77082 7.81167 6.71143 7.8027 6.65385 7.8171C6.59659 7.83141 6.54814 7.86728 6.5177 7.91801C6.48726 7.96883 6.47837 8.02845 6.49253 8.08563C6.50684 8.1429 6.54279 8.19119 6.59368 8.22179L8.81957 9.55708C9.18078 9.77379 9.59734 9.84882 9.99206 9.76828C10.3827 9.68852 10.7053 9.46536 10.9006 9.13988C11.2161 8.61427 11.1707 8.01743 10.7793 7.54335L10.7792 7.54337Z" fill="#4CAF4F"/>
<path d="M11.1161 9.26896L10.9725 8.84762L12.123 8.4554L11.4979 9.49789L11.1161 9.26896ZM10.0425 10.0143L10.1316 10.4504L10.1314 10.4504L10.0425 10.0143ZM8.69051 9.77238L8.46159 10.1542L8.46151 10.1541L8.69051 9.77238ZM6.46462 8.43708L6.69361 8.05534L6.69362 8.05535L6.46462 8.43708ZM6.24902 8.14635L5.81718 8.25444L5.81704 8.25386L6.24902 8.14635ZM6.3025 7.78877L6.68442 8.01747L6.6843 8.01768L6.3025 7.78877ZM6.46564 7.62839L6.70157 7.2509L7.3187 7.6366L6.69426 8.01035L6.46564 7.62839ZM6.46501 7.62799L6.69404 7.24619L6.70094 7.2505L6.46501 7.62799ZM6.24957 7.33742L6.68137 7.2292L6.68151 7.22974L6.24957 7.33742ZM6.3029 6.97954L5.9211 6.75065L5.92137 6.75019L6.3029 6.97954ZM6.46753 6.81687L6.71983 6.45012L7.29474 6.8456L6.69377 7.20025L6.46753 6.81687ZM6.27592 6.54392L6.70774 6.43576L6.70779 6.43596L6.27592 6.54392ZM6.32925 6.18618L6.71112 6.41496L6.71092 6.41529L6.32925 6.18618ZM6.61982 5.97074L6.72821 6.4025L6.72777 6.40261L6.61982 5.97074ZM6.73521 5.95642V5.51126L6.73568 5.51126L6.73521 5.95642ZM6.95247 6.01117L7.39712 6.03223L7.36413 6.72894L6.74611 6.4056L6.95247 6.01117ZM7.03427 5.76252L7.40014 6.01611L7.40007 6.0162L7.03427 5.76252ZM7.67794 5.63478L7.44895 6.01653L7.4489 6.01649L7.67794 5.63478ZM9.50069 6.72813L9.88989 6.51205L10.6962 7.96433L9.27171 7.10988L9.50069 6.72813ZM9.26574 6.30494L9.65448 6.08805L9.65494 6.08886L9.26574 6.30494ZM9.27447 5.7847L8.8927 5.55575L8.89282 5.55555L9.27447 5.7847ZM9.4671 5.59812L9.24935 5.20985L9.25151 5.20865L9.4671 5.59812ZM9.6731 5.54479V5.09963L9.67333 5.09963L9.6731 5.54479ZM10.0463 5.7641L9.6571 5.98012L9.65686 5.97967L10.0463 5.7641ZM10.8625 7.2336L10.4957 7.4859L10.484 7.46891L10.474 7.45091L10.8625 7.2336ZM10.9129 7.30581L10.5491 7.56231L10.5488 7.56185L10.9129 7.30581ZM10.973 7.38329L11.3157 7.09915L11.3164 7.10001L10.973 7.38329ZM11.1161 9.26897L11.2597 9.69031L10.1086 10.0827L10.7344 9.03992L11.1161 9.26897ZM10.7792 7.54337L10.8233 7.98633L10.5871 8.00984L10.436 7.82686L10.7792 7.54337ZM10.7073 7.45031L11.0712 7.19388L11.0718 7.19472L10.7073 7.45031ZM10.6325 7.32611L11.0135 7.09584L11.0535 7.162L11.0688 7.23777L10.6325 7.32611ZM9.82651 5.88595L9.43729 6.10199L9.43722 6.10186L9.82651 5.88595ZM9.58904 5.81767L9.37167 5.42919L9.37374 5.42804L9.58904 5.81767ZM9.48961 5.91411L9.8714 6.14302L9.87136 6.14309L9.48961 5.91411ZM9.48497 6.18289L9.87365 5.96588L9.8742 5.96687L9.48497 6.18289ZM9.94733 7.01596L9.55816 7.23209L9.5581 7.23198L9.94733 7.01596ZM9.92491 7.16714L9.6148 6.84778L9.61543 6.84717L9.92491 7.16714ZM9.77294 7.18452L9.54536 7.56711L9.54394 7.56626L9.77294 7.18452ZM7.54866 5.85016L7.77753 5.46834L7.77767 5.46842L7.54866 5.85016ZM7.2408 5.90553L7.60677 6.15897L7.60668 6.15909L7.2408 5.90553ZM7.20721 6.08621L6.77534 6.19418L6.77518 6.19353L7.20721 6.08621ZM7.30836 6.22229L7.10924 6.62043L7.09402 6.61281L7.07942 6.60406L7.30836 6.22229ZM7.30875 6.2226L7.50787 5.82447L7.52313 5.8321L7.53776 5.84087L7.30875 6.2226ZM8.76307 7.09508L8.99208 6.71335L8.99225 6.71345L8.76307 7.09508ZM8.8061 7.26742L9.18786 7.49638L9.1876 7.49682L8.8061 7.26742ZM8.63376 7.31045L8.86276 6.92871L8.86287 6.92878L8.63376 7.31045ZM6.84829 6.23936L7.07715 5.85754L7.07729 5.85763L6.84829 6.23936ZM6.68075 6.21443L6.78927 6.64616L6.78844 6.64636L6.68075 6.21443ZM6.5446 6.3155L6.92663 6.54401L6.92605 6.54497L6.5446 6.3155ZM6.51943 6.48305L6.08756 6.59101L6.08728 6.58989L6.51943 6.48305ZM6.6205 6.6192L6.39154 7.00096L6.3913 7.00082L6.6205 6.6192ZM6.96794 6.82758L7.19689 6.44581L7.19696 6.44585L6.96794 6.82758ZM8.40588 7.6903L8.63491 7.30858L8.63506 7.30867L8.40588 7.6903ZM8.44891 7.86264L8.83067 8.09161L8.83041 8.09204L8.44891 7.86264ZM8.27657 7.90567L8.04783 8.28756L8.04755 8.28739L8.27657 7.90567ZM6.82195 7.03295L6.59293 7.41468L6.5925 7.41442L6.82195 7.03295ZM6.51817 7.10894L6.89979 7.33814L6.89978 7.33814L6.51817 7.10894ZM6.493 7.27656L6.06113 7.38452L6.06086 7.3834L6.493 7.27656ZM6.59415 7.41271L6.36515 7.79445L6.36478 7.79422L6.59415 7.41271ZM6.95079 7.62666L7.1798 7.24493L7.17981 7.24494L6.95079 7.62666ZM8.04877 8.28543L8.2778 7.90371L8.27795 7.9038L8.04877 8.28543ZM8.0918 8.45777L8.47356 8.68674L8.4733 8.68717L8.0918 8.45777ZM7.91946 8.5008L8.14848 8.11908L8.14894 8.11935L7.91946 8.5008ZM6.82148 7.84203L7.05033 7.46021L7.0505 7.46031L6.82148 7.84203ZM6.65385 7.8171L6.54589 7.38523L6.5459 7.38523L6.65385 7.8171ZM6.5177 7.91801L6.13582 7.68924L6.13598 7.68898L6.5177 7.91801ZM6.49253 8.08563L6.06066 8.1936L6.06042 8.19262L6.49253 8.08563ZM6.59368 8.22179L6.36468 8.60353L6.3643 8.6033L6.59368 8.22179ZM8.81957 9.55708L9.04857 9.17535L9.04859 9.17536L8.81957 9.55708ZM9.99206 9.76828L10.0811 10.2044L10.0811 10.2044L9.99206 9.76828ZM10.9006 9.13988L10.5188 8.9109L10.5189 8.91077L10.9006 9.13988ZM10.7793 7.54335L10.7352 7.10039L10.9715 7.07686L11.1227 7.25997L10.7793 7.54335ZM11.4979 9.49789C11.1988 9.99665 10.7085 10.3326 10.1316 10.4504L9.9534 9.57811C10.2976 9.5078 10.5698 9.31448 10.7343 9.04004L11.4979 9.49789ZM10.1314 10.4504C9.56131 10.5667 8.96836 10.458 8.46159 10.1542L8.91943 9.39059C9.24361 9.58497 9.61077 9.64796 9.95357 9.57807L10.1314 10.4504ZM8.46151 10.1541L6.23562 8.81882L6.69362 8.05535L8.91951 9.39064L8.46151 10.1541ZM6.23563 8.81883C6.02629 8.69325 5.87657 8.49173 5.81718 8.25444L6.68085 8.03827C6.68206 8.0431 6.68374 8.04609 6.68523 8.0481C6.68673 8.05012 6.68918 8.05268 6.69361 8.05534L6.23563 8.81883ZM5.81704 8.25386C5.75807 8.0169 5.79537 7.76892 5.92071 7.55986L6.6843 8.01768C6.68163 8.02212 6.68065 8.0256 6.68026 8.02816C6.67988 8.03072 6.67983 8.03415 6.681 8.03885L5.81704 8.25386ZM5.92059 7.56007C6.00313 7.42223 6.11592 7.31891 6.23702 7.24642L6.69426 8.01035C6.68884 8.01359 6.68596 8.01611 6.6848 8.01724C6.68376 8.01826 6.68391 8.01831 6.68442 8.01747L5.92059 7.56007ZM6.22971 8.00588L6.22908 8.00548L6.70094 7.2505L6.70157 7.2509L6.22971 8.00588ZM6.23602 8.00973C6.02678 7.88422 5.87686 7.68265 5.81764 7.44511L6.68151 7.22974C6.68263 7.23426 6.68421 7.2371 6.68566 7.23906C6.68712 7.24102 6.68956 7.24359 6.694 7.24625L6.23602 8.00973ZM5.81777 7.44565C5.75825 7.20816 5.79569 6.95983 5.9211 6.75065L6.6847 7.20843C6.68198 7.21297 6.68102 7.21645 6.68065 7.21891C6.68029 7.22136 6.68023 7.22464 6.68137 7.2292L5.81777 7.44565ZM5.92137 6.75019C6.00356 6.61347 6.11585 6.50752 6.24129 6.43349L6.69377 7.20025C6.69088 7.20196 6.68892 7.20357 6.68762 7.20483C6.6864 7.20603 6.68539 7.20729 6.68443 7.20888L5.92137 6.75019ZM6.21524 7.18363C6.03543 7.05994 5.89986 6.8751 5.84406 6.65188L6.70779 6.43596C6.70831 6.43806 6.70902 6.43955 6.71017 6.44118C6.71142 6.44295 6.71421 6.44625 6.71983 6.45012L6.21524 7.18363ZM5.84411 6.65208C5.78463 6.41463 5.82199 6.16629 5.94758 5.95707L6.71092 6.41529C6.70828 6.41969 6.70735 6.42305 6.707 6.42543C6.70664 6.4278 6.70657 6.4311 6.70774 6.43576L5.84411 6.65208ZM5.94739 5.95739C6.07303 5.74769 6.27486 5.59811 6.51188 5.53887L6.72777 6.40261C6.72302 6.40379 6.72006 6.40545 6.71808 6.40692C6.71611 6.40838 6.71365 6.41074 6.71112 6.41496L5.94739 5.95739ZM6.51144 5.53898C6.58518 5.52046 6.66036 5.51126 6.73521 5.51126V6.40158C6.73329 6.40158 6.73092 6.40181 6.72821 6.40249L6.51144 5.53898ZM6.73568 5.51126C6.8869 5.51142 7.0311 5.54991 7.15883 5.61673L6.74611 6.4056C6.74187 6.40339 6.73885 6.40241 6.73717 6.40198C6.73554 6.40157 6.7348 6.40158 6.73475 6.40158L6.73568 5.51126ZM6.50781 5.99011C6.51548 5.82822 6.56429 5.65907 6.66847 5.50885L7.40007 6.0162C7.40137 6.01433 7.39779 6.01808 7.39712 6.03223L6.50781 5.99011ZM6.66841 5.50894C6.95036 5.10214 7.49701 5.00708 7.90697 5.25307L7.4489 6.01649C7.43593 6.00871 7.4232 6.00746 7.41323 6.00944C7.40348 6.01138 7.4008 6.01515 7.40014 6.01611L6.66841 5.50894ZM7.90692 5.25303L9.72968 6.34639L9.27171 7.10988L7.44895 6.01653L7.90692 5.25303ZM9.1115 6.94421L8.87654 6.52102L9.65494 6.08886L9.88989 6.51205L9.1115 6.94421ZM8.877 6.52184C8.70886 6.22048 8.71556 5.85113 8.8927 5.55575L9.65624 6.01364C9.64224 6.03699 9.64234 6.06628 9.65448 6.08805L8.877 6.52184ZM8.89282 5.55555C8.97964 5.41095 9.10295 5.29196 9.24936 5.20985L9.68485 5.98638C9.67221 5.99347 9.66244 6.00332 9.65612 6.01384L8.89282 5.55555ZM9.25151 5.20865C9.38471 5.13492 9.52998 5.09963 9.6731 5.09963V5.98994C9.67655 5.98994 9.68023 5.98895 9.6827 5.98759L9.25151 5.20865ZM9.67333 5.09963C9.97754 5.09979 10.2763 5.26028 10.4358 5.54852L9.65686 5.97967C9.65862 5.98286 9.66177 5.98599 9.66495 5.98782C9.66748 5.98928 9.66999 5.98994 9.67287 5.98994L9.67333 5.09963ZM10.4356 5.54808C10.7062 6.03564 11.2156 6.95302 11.251 7.01628L10.474 7.45091C10.4376 7.38595 9.92705 6.46652 9.6571 5.98012L10.4356 5.54808ZM11.2292 6.98129C11.2355 6.99044 11.2575 7.02195 11.2771 7.04976L10.5488 7.56185C10.5288 7.5335 10.5047 7.49894 10.4957 7.4859L11.2292 6.98129ZM11.2767 7.0493C11.2859 7.06236 11.2979 7.07776 11.3157 7.09915L10.6303 7.66742C10.606 7.63815 10.5775 7.60259 10.5491 7.56231L11.2767 7.0493ZM11.3164 7.10001C11.891 7.79652 11.9621 8.72416 11.4978 9.49802L10.7344 9.03992C11.0039 8.59076 10.9653 8.07345 10.6296 7.66656L11.3164 7.10001ZM10.9724 8.84762L10.9725 8.84762L11.2597 9.69031L11.2597 9.69031L10.9724 8.84762ZM10.436 7.82686C10.4079 7.79279 10.3749 7.75163 10.3428 7.7059L11.0718 7.19472C11.0844 7.21271 11.1005 7.23337 11.1224 7.25988L10.436 7.82686ZM10.3434 7.70675C10.3154 7.66698 10.2853 7.62477 10.2653 7.59166C10.2519 7.56952 10.234 7.53719 10.2189 7.49601C10.2042 7.4559 10.1976 7.42155 10.1962 7.41446L11.0688 7.23777C11.0699 7.2433 11.0655 7.21873 11.0547 7.18921C11.0435 7.15861 11.0312 7.13767 11.0274 7.13138C11.0256 7.12837 11.0249 7.1274 11.0263 7.12952C11.0276 7.13153 11.03 7.13504 11.034 7.14084C11.0423 7.15287 11.0537 7.16907 11.0712 7.19388L10.3434 7.70675ZM10.2515 7.55638C10.1665 7.41567 9.96632 7.05508 9.43729 6.10199L10.2157 5.66991C10.7522 6.63643 10.9396 6.97368 11.0135 7.09584L10.2515 7.55638ZM9.43722 6.10186C9.5093 6.23182 9.67339 6.27966 9.80433 6.2073L9.37374 5.42804C9.6738 5.26224 10.0503 5.37159 10.2158 5.67004L9.43722 6.10186ZM9.8064 6.20615C9.83257 6.19151 9.85583 6.16899 9.8714 6.14302L9.10782 5.6852C9.17216 5.57789 9.26229 5.4904 9.37167 5.42919L9.8064 6.20615ZM9.87136 6.14309C9.90324 6.08994 9.90539 6.02273 9.87365 5.96588L9.0963 6.3999C8.97126 6.17596 8.97719 5.90299 9.10786 5.68513L9.87136 6.14309ZM9.8742 5.96687L10.3366 6.79994L9.5581 7.23198L9.09575 6.39891L9.8742 5.96687ZM10.3365 6.79983C10.4618 7.02549 10.4202 7.3074 10.2344 7.48711L9.61543 6.84717C9.51127 6.94791 9.48805 7.10585 9.55816 7.23209L10.3365 6.79983ZM10.235 7.4865C10.0477 7.66835 9.76458 7.69751 9.54536 7.56711L10.0005 6.80194C9.87916 6.72974 9.72058 6.74505 9.6148 6.84778L10.235 7.4865ZM9.54394 7.56626L7.31966 6.23189L7.77767 5.46842L10.0019 6.80279L9.54394 7.56626ZM7.3198 6.23197C7.36322 6.258 7.41228 6.26559 7.4583 6.25734C7.50431 6.24909 7.56367 6.2212 7.60677 6.15897L6.87482 5.6521C7.0891 5.34267 7.49648 5.29988 7.77753 5.46834L7.3198 6.23197ZM7.60668 6.15909C7.64143 6.10894 7.65488 6.04187 7.63923 5.97889L6.77518 6.19353C6.72839 6.00517 6.76559 5.80972 6.87491 5.65198L7.60668 6.15909ZM7.63907 5.97825C7.6245 5.91994 7.58681 5.87021 7.53731 5.84052L7.07942 6.60406C6.92813 6.51333 6.81855 6.36701 6.77534 6.19418L7.63907 5.97825ZM7.50748 5.82415C7.54769 5.84426 7.57728 5.86669 7.59601 5.88253C7.60522 5.89032 7.61235 5.89701 7.61665 5.90113C7.61884 5.90323 7.62059 5.90495 7.62165 5.906C7.62219 5.90654 7.62263 5.90697 7.62289 5.90724C7.62303 5.90737 7.62314 5.90748 7.62321 5.90755C7.62324 5.90758 7.62327 5.90761 7.62329 5.90763C7.62329 5.90764 7.6233 5.90765 7.62331 5.90765C7.62331 5.90765 7.62331 5.90765 7.62331 5.90766C7.62331 5.90766 7.62331 5.90766 7.62331 5.90766C7.62387 5.90822 7.62062 5.90494 7.61674 5.90122C7.61247 5.89712 7.60537 5.89047 7.59619 5.8827C7.57753 5.86691 7.54801 5.84454 7.50787 5.82447L7.10963 6.62074C7.06942 6.60063 7.03983 6.57821 7.02111 6.56236C7.0119 6.55457 7.00477 6.54789 7.00047 6.54376C6.99828 6.54166 6.99653 6.53994 6.99547 6.53889C6.99493 6.53836 6.99449 6.53792 6.99422 6.53766C6.99409 6.53752 6.99398 6.53741 6.99391 6.53734C6.99388 6.53731 6.99385 6.53728 6.99383 6.53726C6.99382 6.53726 6.99381 6.53725 6.99381 6.53724C6.99381 6.53724 6.99381 6.53724 6.9938 6.53724C6.9938 6.53724 6.9938 6.53724 6.9938 6.53724C6.99324 6.53668 6.99649 6.53995 7.00038 6.54368C7.00465 6.54777 7.01175 6.55442 7.02093 6.56219C7.03959 6.57798 7.06911 6.60036 7.10924 6.62043L7.50748 5.82415ZM7.53776 5.84087L8.99208 6.71335L8.53407 7.47681L7.07975 6.60434L7.53776 5.84087ZM8.99225 6.71345C9.26248 6.87573 9.34992 7.22617 9.18786 7.49638L8.42434 7.03846C8.3337 7.18959 8.3826 7.38585 8.5339 7.47671L8.99225 6.71345ZM9.1876 7.49682C9.02571 7.76604 8.67569 7.85482 8.40465 7.69211L8.86287 6.92878C8.71107 6.83765 8.51507 6.88757 8.4246 7.03802L9.1876 7.49682ZM8.40476 7.69218L6.6193 6.6211L7.07729 5.85763L8.86276 6.92871L8.40476 7.69218ZM6.61944 6.62119C6.66944 6.65116 6.73111 6.66078 6.78927 6.64615L6.57223 5.7827C6.74492 5.7393 6.92583 5.76685 7.07715 5.85754L6.61944 6.62119ZM6.78844 6.64636C6.84625 6.63195 6.8965 6.59438 6.92663 6.54401L6.16257 6.08699C6.25357 5.93485 6.40041 5.82554 6.57307 5.7825L6.78844 6.64636ZM6.92605 6.54497C6.95662 6.49415 6.96553 6.43267 6.95157 6.3762L6.08728 6.58989C6.045 6.41889 6.07153 6.23833 6.16314 6.08604L6.92605 6.54497ZM6.95129 6.37508C6.93679 6.31709 6.89935 6.26741 6.8497 6.23759L6.3913 7.00082C6.24003 6.90996 6.13069 6.76353 6.08756 6.59101L6.95129 6.37508ZM6.84946 6.23744L7.19689 6.44581L6.73898 7.20934L6.39154 7.00096L6.84946 6.23744ZM7.19696 6.44585L8.63491 7.30858L8.17686 8.07203L6.73891 7.2093L7.19696 6.44585ZM8.63506 7.30867C8.90529 7.47095 8.99273 7.82139 8.83067 8.09161L8.06715 7.63368C7.97651 7.78481 8.02541 7.98107 8.17671 8.07193L8.63506 7.30867ZM8.83041 8.09204C8.66827 8.36168 8.31829 8.44956 8.04783 8.28756L8.50531 7.52378C8.35409 7.4332 8.15813 7.48238 8.06741 7.63324L8.83041 8.09204ZM8.04755 8.28739L6.59293 7.41468L7.05097 6.65123L8.50559 7.52395L8.04755 8.28739ZM6.5925 7.41442C6.69939 7.47872 6.83651 7.44349 6.89979 7.33814L6.13655 6.87974C6.32568 6.56484 6.73527 6.46134 7.0514 6.65149L6.5925 7.41442ZM6.89978 7.33814C6.93013 7.28761 6.93912 7.22627 6.92514 7.16971L6.06086 7.3834C6.01856 7.21232 6.04517 7.03189 6.13656 6.87973L6.89978 7.33814ZM6.92486 7.16859C6.91027 7.11023 6.87262 7.06072 6.82353 7.0312L6.36478 7.79422C6.21391 7.70352 6.10436 7.55741 6.06113 7.38452L6.92486 7.16859ZM6.82316 7.03098L7.1798 7.24493L6.72179 8.0084L6.36515 7.79445L6.82316 7.03098ZM7.17981 7.24494L8.2778 7.90371L7.81975 8.66715L6.72177 8.00839L7.17981 7.24494ZM8.27795 7.9038C8.54818 8.06608 8.63562 8.41652 8.47356 8.68674L7.71004 8.22881C7.6194 8.37994 7.6683 8.5762 7.8196 8.66706L8.27795 7.9038ZM8.4733 8.68717C8.31166 8.95597 7.96161 9.04566 7.68998 8.88224L8.14894 8.11935C7.99656 8.02767 7.80052 8.07834 7.7103 8.22837L8.4733 8.68717ZM7.69043 8.88252L6.59245 8.22375L7.0505 7.46031L8.14848 8.11908L7.69043 8.88252ZM6.59262 8.22385C6.64275 8.2539 6.70446 8.2633 6.76181 8.24896L6.5459 7.38523C6.71841 7.3421 6.89889 7.36944 7.05033 7.46021L6.59262 8.22385ZM6.76182 8.24896C6.8191 8.23464 6.86912 8.19754 6.89942 8.14704L6.13598 7.68898C6.22716 7.53702 6.37408 7.42818 6.54589 7.38523L6.76182 8.24896ZM6.89957 8.14678C6.92949 8.09685 6.93878 8.03578 6.92464 7.97865L6.06042 8.19262C6.01796 8.02112 6.04503 7.8408 6.13582 7.68924L6.89957 8.14678ZM6.92439 7.97767C6.9098 7.91931 6.87214 7.86979 6.82306 7.84028L6.3643 8.6033C6.21344 8.51259 6.10388 8.36649 6.06066 8.1936L6.92439 7.97767ZM6.82268 7.84006L9.04857 9.17535L8.59057 9.93882L6.36468 8.60353L6.82268 7.84006ZM9.04859 9.17536C9.31911 9.33766 9.62277 9.3893 9.90305 9.33211L10.0811 10.2044C9.57192 10.3083 9.04245 10.2099 8.59055 9.93881L9.04859 9.17536ZM9.903 9.33212C10.1783 9.27591 10.3914 9.12338 10.5188 8.9109L11.2823 9.36885C11.0193 9.80734 10.587 10.1011 10.0811 10.2044L9.903 9.33212ZM10.5189 8.91077C10.7369 8.54755 10.7078 8.15596 10.436 7.82673L11.1227 7.25997C11.6335 7.87889 11.6952 8.68099 11.2822 9.36898L10.5189 8.91077ZM10.8234 7.98632L10.8233 7.98633L10.7351 7.1004L10.7352 7.10039L10.8234 7.98632Z" fill="#4CAF4F" mask="url(#path-4-inside-2_212_1414)"/>
</svg>
