<svg width="17" height="17" viewBox="0 0 17 17" fill="none" xmlns="http://www.w3.org/2000/svg">
<g clip-path="url(#clip0_212_1407)">
<path d="M11.347 2.95172H11.348C12.136 2.94943 12.9058 3.18949 13.5521 3.6402C14.1984 4.09091 14.6902 4.73014 14.9603 5.47028C15.2305 6.21052 15.266 7.01678 15.0619 7.77789C14.8578 8.53886 14.4239 9.21848 13.8197 9.72418L13.6156 9.89508L13.8578 10.0045C14.8504 10.4536 15.7045 11.1603 16.3314 12.0513L16.3324 12.0523C16.3769 12.1146 16.4091 12.1856 16.4261 12.2603C16.4431 12.3349 16.4451 12.4125 16.432 12.4879C16.4189 12.5632 16.3911 12.6353 16.35 12.6998C16.3088 12.7643 16.2547 12.8202 16.1918 12.8638L16.1898 12.8648C16.0924 12.9344 15.9755 12.9716 15.8558 12.9713L15.7855 12.9673C15.7162 12.9586 15.6486 12.9373 15.5863 12.9048C15.5035 12.8617 15.4324 12.7993 15.3783 12.7232C14.9231 12.0773 14.3188 11.5503 13.6176 11.1861C13.0041 10.8675 12.3317 10.6813 11.6439 10.6392L11.348 10.6304L11.2328 10.6187C11.1208 10.5962 11.017 10.5414 10.9349 10.4595C10.8254 10.35 10.7631 10.2013 10.7631 10.0464C10.7631 9.89149 10.8254 9.74293 10.9349 9.63336C11.0445 9.5238 11.1931 9.46149 11.348 9.46149C12.0563 9.46139 12.7359 9.18008 13.2367 8.67926C13.7374 8.1784 14.0189 7.4988 14.0189 6.79059C14.0188 6.08234 13.7375 5.40273 13.2367 4.90192C12.7359 4.4011 12.0563 4.11978 11.348 4.11969C11.1038 4.11923 10.8602 4.15327 10.6254 4.22028L10.6234 4.22125C10.5494 4.24326 10.4717 4.24995 10.3949 4.24176C10.3178 4.23351 10.2431 4.2098 10.1752 4.17242C10.1073 4.13505 10.0475 4.08466 9.99939 4.02399C9.95124 3.9633 9.91588 3.89348 9.8949 3.81891C9.87395 3.74437 9.86787 3.66626 9.87732 3.58942C9.88679 3.51272 9.9113 3.43877 9.94958 3.37164C9.98802 3.30435 10.0395 3.24504 10.101 3.19781C10.1623 3.15069 10.2323 3.11609 10.307 3.09625L10.3099 3.09528C10.6471 2.99929 10.9965 2.95117 11.347 2.95172ZM6.24548 2.94684C7.03286 2.94684 7.80149 3.18886 8.44666 3.6402C9.0919 4.0917 9.58309 4.73139 9.85291 5.47125C10.1226 6.211 10.1585 7.01618 9.95544 7.77692C9.75229 8.53764 9.3197 9.2173 8.71716 9.72418L8.51501 9.89508L8.75623 10.0045C9.62481 10.3976 10.3877 10.9876 10.9847 11.7261L11.2299 12.0513L11.2347 12.0582C11.2834 12.1206 11.3191 12.1926 11.3392 12.2691C11.3593 12.3455 11.3635 12.4253 11.3519 12.5035C11.3403 12.5817 11.3133 12.6569 11.2719 12.7242C11.2304 12.7915 11.1754 12.8495 11.1107 12.8951C11.046 12.9406 10.9723 12.9725 10.8949 12.9888C10.8176 13.0051 10.738 13.0062 10.6605 12.9908C10.5829 12.9753 10.509 12.9438 10.4437 12.899C10.4112 12.8766 10.3811 12.8511 10.3539 12.8228L10.2806 12.73L10.2758 12.7232C9.82148 12.0763 9.21837 11.5477 8.51697 11.1832C7.81548 10.8186 7.03606 10.6285 6.24548 10.6285C5.45513 10.6285 4.6763 10.8187 3.97498 11.1832C3.27347 11.5478 2.66951 12.0762 2.21521 12.7232V12.7242C2.16181 12.8008 2.09007 12.8637 2.0072 12.9068C1.92441 12.9498 1.83194 12.9715 1.73865 12.9713H1.73767C1.61794 12.9716 1.5011 12.9344 1.40369 12.8648H1.40271C1.27632 12.7756 1.1909 12.6393 1.16443 12.4869C1.13803 12.3345 1.17321 12.1779 1.26208 12.0513C1.88901 11.1603 2.74315 10.4536 3.73572 10.0045L3.97693 9.89508L3.7738 9.72418C3.17143 9.21735 2.73963 8.53749 2.5365 7.77692C2.33342 7.01613 2.36932 6.21103 2.63904 5.47125C2.90885 4.73141 3.39909 4.0917 4.04431 3.6402C4.68947 3.18875 5.45806 2.9469 6.24548 2.94684ZM6.76697 4.17145C6.2489 4.0684 5.71201 4.12168 5.224 4.32379C4.73595 4.52595 4.31827 4.86796 4.02478 5.30719C3.73144 5.74628 3.57466 6.26253 3.57458 6.79059C3.57458 7.49881 3.85612 8.17839 4.35681 8.67926C4.85764 9.18009 5.53721 9.46141 6.24548 9.46149C6.77374 9.46149 7.29063 9.30478 7.72986 9.01129C8.16892 8.71782 8.51115 8.30096 8.71326 7.81305C8.91538 7.32508 8.96859 6.78812 8.8656 6.27008C8.76254 5.75197 8.50769 5.27545 8.13416 4.90192C7.7607 4.52859 7.28487 4.27449 6.76697 4.17145Z" fill="#4CAF4F" stroke="#4CAF4F" stroke-width="0.333867"/>
</g>
<defs>
<clipPath id="clip0_212_1407">
<rect width="16.0256" height="16.0256" fill="white" transform="translate(0.737061 0.0301514)"/>
</clipPath>
</defs>
</svg>
