<svg width="12" height="13" viewBox="0 0 12 13" fill="none" xmlns="http://www.w3.org/2000/svg">
<path d="M11.0917 12.4072V11.0717C11.0917 10.3634 10.8103 9.68399 10.3094 9.1831C9.80849 8.6822 9.12913 8.4008 8.42076 8.4008H7.75302C7.57593 8.4008 7.40609 8.33045 7.28086 8.20522C7.15564 8.08 7.08529 7.91016 7.08529 7.73306V4.3944C7.08529 4.04021 6.94459 3.70053 6.69414 3.45008C6.44369 3.19963 6.10401 3.05893 5.74982 3.05893C5.39564 3.05893 5.05596 3.19963 4.80551 3.45008C4.55506 3.70053 4.41436 4.04021 4.41436 4.3944V10.404L2.8118 8.26725C2.6874 8.10139 2.5261 7.96677 2.34066 7.87405C2.15523 7.78133 1.95075 7.73306 1.74343 7.73306H1.45363C0.87604 7.73306 0.407959 8.20115 0.407959 8.77873C0.407959 8.96837 0.459374 9.15467 0.556863 9.31693L2.41116 12.4072M5.74982 1.05573V0.388ZM9.75622 5.06213H10.424ZM1.07569 5.06213H1.74343ZM2.64019 1.9525L2.1681 1.48041ZM8.85946 1.9525L9.33154 1.48041Z" fill="#4CAF4F"/>
<path d="M11.0917 12.4072V11.0717C11.0917 10.3634 10.8103 9.68399 10.3094 9.1831C9.80849 8.6822 9.12913 8.4008 8.42076 8.4008H7.75302C7.57593 8.4008 7.40609 8.33045 7.28086 8.20522C7.15564 8.08 7.08529 7.91016 7.08529 7.73306V4.3944C7.08529 4.04021 6.94459 3.70053 6.69414 3.45008C6.44369 3.19963 6.10401 3.05893 5.74982 3.05893C5.39564 3.05893 5.05596 3.19963 4.80551 3.45008C4.55506 3.70053 4.41436 4.04021 4.41436 4.3944V10.404L2.8118 8.26725C2.6874 8.10139 2.5261 7.96677 2.34066 7.87405C2.15523 7.78133 1.95075 7.73306 1.74343 7.73306H1.45363C0.87604 7.73306 0.407959 8.20115 0.407959 8.77873C0.407959 8.96837 0.459374 9.15467 0.556863 9.31693L2.41116 12.4072M5.74982 1.05573V0.388M9.75622 5.06213H10.424M1.07569 5.06213H1.74343M2.64019 1.9525L2.1681 1.48041M8.85946 1.9525L9.33154 1.48041" stroke="#4CAF4F" stroke-width="0.667733" stroke-linecap="round" stroke-linejoin="round"/>
</svg>
