<svg width="17" height="17" viewBox="0 0 17 17" fill="none" xmlns="http://www.w3.org/2000/svg">
<g clip-path="url(#clip0_212_1147)">
<path d="M14.9709 4.64803C14.9709 4.80361 15.0986 4.92973 15.2561 4.92973H15.5413C15.6988 4.92973 15.8265 4.80361 15.8265 4.64803C15.8265 4.49245 15.6988 4.36633 15.5413 4.36633H15.2561C15.0986 4.36633 14.9709 4.49245 14.9709 4.64803Z" fill="#212326"/>
<path d="M6.7009 13.3807H8.08625L7.68294 12.9823C7.57599 12.8767 7.43091 12.8173 7.27966 12.8173H6.7009C4.49591 12.8173 2.70842 11.0516 2.70842 8.87353C2.70842 6.69543 4.49591 4.92974 6.7009 4.92973H11.2637C13.4687 4.92973 15.2562 6.69543 15.2562 8.87353C15.2562 11.0516 13.4687 12.8173 11.2637 12.8173H9.55688C9.32997 12.8173 9.11237 12.7283 8.95191 12.5698L8.47943 12.1031C8.21203 11.8389 7.84933 11.6905 7.47116 11.6905H6.7009C5.1259 11.6905 3.84913 10.4293 3.84913 8.87353C3.84913 7.31774 5.1259 6.05653 6.7009 6.05653H11.2637C12.8387 6.05653 14.1155 7.31774 14.1155 8.87353C14.1155 10.4293 12.8387 11.6905 11.2637 11.6905H10.1678C9.94087 11.6905 9.72326 11.6015 9.56281 11.443L9.09031 10.9763C8.8229 10.7121 8.46022 10.5637 8.08205 10.5637H6.7009C5.75592 10.5637 4.98984 9.80699 4.98984 8.87353C4.98984 7.94007 5.75592 7.18333 6.7009 7.18333H11.2637C12.2087 7.18333 12.9748 7.94007 12.9748 8.87353C12.9748 9.79561 12.2273 10.5453 11.2982 10.5634L11.2981 10.5637H10.8807C10.6538 10.5637 10.4362 10.4747 10.2758 10.3162L9.80325 9.84948C9.58385 9.63272 9.30029 9.49392 8.99665 9.45108L8.98233 9.43693H6.7009C6.38591 9.43693 6.13055 9.18469 6.13055 8.87353C6.13055 8.56238 6.38591 8.31013 6.7009 8.31013H11.2637C11.5787 8.31013 11.8341 8.56238 11.8341 8.87353C11.8341 9.18469 11.5787 9.43693 11.2637 9.43693H10.123L10.5263 9.83532C10.6333 9.94097 10.7784 10.0003 10.9296 10.0003H11.2637C11.8937 10.0003 12.4045 9.49584 12.4045 8.87353C12.4045 8.25122 11.8937 7.74673 11.2637 7.74673H6.7009C6.07091 7.74673 5.56019 8.25122 5.56019 8.87353C5.56019 9.49584 6.07091 10.0003 6.7009 10.0003H8.795C9.02191 10.0003 9.23951 10.0894 9.39996 10.2478L9.87247 10.7146C10.1399 10.9787 10.5026 11.1271 10.8807 11.1271H11.4063V11.1228C12.5999 11.0501 13.5452 10.0708 13.5452 8.87353C13.5452 7.62891 12.5237 6.61993 11.2637 6.61993H6.7009C5.44092 6.61993 4.41948 7.62891 4.41948 8.87353C4.41948 10.1182 5.44092 11.1271 6.7009 11.1271H8.08205C8.30896 11.1271 8.52657 11.2162 8.68702 11.3746L9.15952 11.8414C9.42693 12.1055 9.78961 12.2539 10.1678 12.2539H11.2637C13.1537 12.2539 14.6859 10.7405 14.6859 8.87353C14.6859 7.00658 13.1537 5.49313 11.2637 5.49313H6.7009C4.81091 5.49313 3.27877 7.00658 3.27877 8.87353C3.27877 10.7405 4.81091 12.2539 6.7009 12.2539H7.47116C7.69807 12.2539 7.91567 12.343 8.07612 12.5014L8.54863 12.9682C8.81603 13.2323 9.17871 13.3807 9.55688 13.3807H11.2637C13.7837 13.3807 15.8266 11.3628 15.8266 8.87353C15.8266 6.38427 13.7837 4.36633 11.2637 4.36633L6.7009 4.36633C4.18091 4.36633 2.13806 6.38428 2.13806 8.87353C2.13806 11.3628 4.18092 13.3807 6.7009 13.3807Z" fill="#212326"/>
</g>
<defs>
<clipPath id="clip0_212_1147">
<rect width="13.6885" height="9.0144" fill="white" transform="translate(2.13806 4.36633)"/>
</clipPath>
</defs>
</svg>
