<svg width="18" height="17" viewBox="0 0 18 17" fill="none" xmlns="http://www.w3.org/2000/svg">
<g clip-path="url(#clip0_212_1151)">
<path d="M4.68724 5.36792C4.00925 5.36792 3.35903 5.63725 2.87962 6.11666L1.31503 7.68126C0.835614 8.16067 0.566284 8.81089 0.566284 9.48888C0.566284 10.9007 1.71081 12.0453 3.12266 12.0453C3.80065 12.0453 4.45087 11.7759 4.93028 11.2965L6.01252 10.2143C6.01252 10.2142 6.01254 10.2143 6.01252 10.2143L9.1658 7.06098C9.39476 6.83202 9.7053 6.70339 10.0291 6.70339C10.5712 6.70339 11.0308 7.05671 11.1902 7.54564L12.1853 6.55047C11.7313 5.83942 10.9353 5.36792 10.0291 5.36792C9.35112 5.36792 8.7009 5.63725 8.22149 6.11666L3.98597 10.3522C3.757 10.5812 3.44646 10.7098 3.12266 10.7098C2.44837 10.7098 1.90175 10.1632 1.90175 9.48888C1.90175 9.16507 2.03038 8.85453 2.25934 8.62557L3.82393 7.06098C4.0529 6.83202 4.36344 6.70339 4.68724 6.70339C5.22938 6.70339 5.68895 7.05672 5.8483 7.54567L6.84349 6.55049C6.3895 5.83943 5.59345 5.36792 4.68724 5.36792Z" fill="#394149"/>
<path d="M9.32779 10.3522C9.09883 10.5812 8.78829 10.7098 8.46448 10.7098C7.92244 10.7098 7.46288 10.3566 7.30349 9.86771L6.30835 10.8629C6.76236 11.5738 7.55837 12.0453 8.46448 12.0453C9.14248 12.0453 9.79269 11.7759 10.2721 11.2965L14.5076 7.06098C14.7366 6.83202 15.0471 6.70339 15.3709 6.70339C16.0452 6.70339 16.5918 7.25 16.5918 7.92429C16.5918 8.2481 16.4632 8.55864 16.2342 8.7876L14.6697 10.3522C14.4407 10.5812 14.1302 10.7098 13.8063 10.7098C13.2643 10.7098 12.8047 10.3565 12.6453 9.8676L11.6502 10.8628C12.1042 11.5738 12.9002 12.0453 13.8063 12.0453C14.4843 12.0453 15.1346 11.7759 15.614 11.2965L17.1786 9.73191C17.658 9.2525 17.9273 8.60229 17.9273 7.92429C17.9273 6.51245 16.7828 5.36792 15.3709 5.36792C14.6929 5.36792 14.0427 5.63725 13.5633 6.11666L9.32779 10.3522Z" fill="#394149"/>
</g>
<defs>
<clipPath id="clip0_212_1151">
<rect width="17.3611" height="6.67733" fill="white" transform="translate(0.566284 5.36792)"/>
</clipPath>
</defs>
</svg>
