<svg width="17" height="10" viewBox="0 0 17 10" fill="none" xmlns="http://www.w3.org/2000/svg">
<path d="M8.14849 0.836182C6.95617 0.836182 5.98552 1.81571 5.98552 3.01311C5.98552 3.77059 6.37449 4.43942 6.96185 4.82928C6.25244 5.06648 5.63859 5.50982 5.18835 6.0898C4.93944 5.89833 4.6613 5.74435 4.36146 5.63401C4.81614 5.29646 5.11327 4.75422 5.11327 4.14479C5.11327 3.12925 4.29193 2.29791 3.28255 2.29791C2.27316 2.29791 1.45183 3.12925 1.45183 4.14479C1.45183 4.75457 1.7492 5.29706 2.20426 5.63461C0.999481 6.07919 0.139038 7.24317 0.139038 8.61302V9.57528C0.139161 9.64864 0.168504 9.71891 0.220531 9.77057C0.272558 9.82235 0.342957 9.8512 0.416313 9.85096H4.63804C4.64828 9.85207 4.65851 9.85268 4.66874 9.85256H11.6285C11.6387 9.85268 11.6491 9.85207 11.6592 9.85096H15.8812C16.033 9.85034 16.1559 9.72717 16.1563 9.57528V8.61302C16.1563 7.24317 15.2973 6.07919 14.0932 5.63449C14.5482 5.29706 14.8456 4.75444 14.8456 4.14467C14.8456 3.12913 14.0243 2.29779 13.0149 2.29779C12.0055 2.29779 11.1842 3.12913 11.1842 4.14467C11.1842 4.7541 11.4814 5.29643 11.9361 5.63389C11.6356 5.74448 11.3574 5.89896 11.1081 6.0909C10.6581 5.51057 10.0451 5.06662 9.3357 4.82928C9.92291 4.43942 10.312 3.77059 10.312 3.01311C10.312 1.81571 9.34088 0.836182 8.14856 0.836182H8.14849ZM8.14849 1.38852C9.04024 1.38852 9.75913 2.11223 9.75913 3.01311C9.75913 3.90694 9.05145 4.62362 8.16957 4.63511C8.16255 4.63511 8.15564 4.63412 8.14849 4.63412C8.14134 4.63412 8.13456 4.63511 8.12741 4.63511C7.24553 4.62376 6.53833 3.90697 6.53833 3.01311C6.53833 2.11211 7.25661 1.38852 8.14837 1.38852H8.14849ZM3.28258 2.85021C3.99014 2.85021 4.56097 3.42448 4.56097 4.14476C4.56097 4.86021 3.99752 5.43202 3.29662 5.43978C3.29194 5.43978 3.28738 5.43929 3.28257 5.43929C3.27788 5.43929 3.27332 5.43978 3.26851 5.43978C2.56762 5.43201 2.00417 4.86008 2.00417 4.14476C2.00417 3.42452 2.575 2.85021 3.28256 2.85021H3.28258ZM13.0147 2.85021C13.7223 2.85021 14.2931 3.42448 14.2931 4.14476C14.2931 4.86021 13.7297 5.43202 13.0288 5.43978C13.0241 5.43978 13.0195 5.43929 13.0147 5.43929C13.01 5.43929 13.0055 5.43978 13.0007 5.43978C12.2998 5.43201 11.7363 4.86008 11.7363 4.14476C11.7363 3.42452 12.3071 2.85021 13.0147 2.85021H13.0147ZM8.12734 5.18741C8.13437 5.18753 8.14128 5.1884 8.14843 5.1884C8.15545 5.1884 8.16236 5.18741 8.16951 5.18741C9.93808 5.19875 11.3535 6.62632 11.3535 8.41336L11.3534 9.30006H4.94375V8.41336C4.94375 6.62616 6.35874 5.19877 8.12709 5.18741H8.12734ZM3.26143 5.99275C3.26846 5.99287 3.27536 5.99373 3.28252 5.99373C3.28967 5.99373 3.29645 5.99275 3.3036 5.99275C3.90179 5.99755 4.44772 6.20382 4.88242 6.5489C4.57136 7.09928 4.39148 7.73456 4.39148 8.41352V9.29811H0.69115V8.61299C0.69115 7.16063 1.83306 6.00408 3.26137 5.99262L3.26143 5.99275ZM12.9936 5.99275C13.0007 5.99287 13.0075 5.99373 13.0147 5.99373C13.0218 5.99373 13.0286 5.99275 13.0357 5.99275C14.464 6.00409 15.606 7.16079 15.606 8.61312V9.29811H11.9037L11.9036 8.41352C11.9036 7.73494 11.7242 7.10013 11.4138 6.54988C11.8486 6.20431 12.3949 5.99754 12.9936 5.99275H12.9936Z" fill="#103E13"/>
</svg>
