<svg width="12" height="10" viewBox="0 0 12 10" fill="none" xmlns="http://www.w3.org/2000/svg">
<path fill-rule="evenodd" clip-rule="evenodd" d="M5.47768 2.68957L5.50105 3.07494L5.11154 3.02776C3.69373 2.84687 2.45509 2.23342 1.40341 1.20315L0.889261 0.691947L0.756828 1.06945C0.476381 1.91097 0.655555 2.79968 1.23982 3.3974C1.55143 3.72771 1.48131 3.7749 0.943792 3.57828C0.756828 3.51537 0.593234 3.46818 0.577653 3.49177C0.523122 3.54682 0.710087 4.26251 0.8581 4.54564C1.06064 4.93887 1.47352 5.32424 1.92535 5.55232L2.30707 5.73321L1.85524 5.74107C1.41899 5.74107 1.40341 5.74893 1.45015 5.91409C1.60596 6.4253 2.22138 6.96796 2.90692 7.2039L3.38991 7.36906L2.96924 7.62073C2.34602 7.9825 1.61375 8.18698 0.88147 8.20271C0.530912 8.21058 0.242676 8.24204 0.242676 8.26563C0.242676 8.34428 1.19308 8.7847 1.74618 8.95772C3.40549 9.46893 5.3764 9.24872 6.85654 8.37574C7.90821 7.75443 8.95989 6.51967 9.45067 5.32424C9.71553 4.6872 9.9804 3.52323 9.9804 2.96484C9.9804 2.60306 10.0038 2.55588 10.44 2.12332C10.6971 1.87165 10.9386 1.59638 10.9853 1.51774C11.0632 1.36831 11.0554 1.36831 10.6581 1.50201C9.99598 1.73795 9.9025 1.70649 10.2297 1.35258C10.4712 1.10091 10.7594 0.644759 10.7594 0.511059C10.7594 0.487465 10.6426 0.526789 10.5101 0.597571C10.3699 0.676217 10.0583 0.794188 9.8246 0.86497L9.40393 0.998669L9.02221 0.739135C8.81187 0.597571 8.51585 0.440277 8.36004 0.393089C7.96274 0.282984 7.35511 0.298713 6.99676 0.424548C6.02299 0.778458 5.40756 1.69076 5.47768 2.68957Z" fill="white"/>
</svg>
